<svg width="42" height="31" viewBox="0 0 42 31" fill="none" xmlns="http://www.w3.org/2000/svg">
<path d="M0.605114 31V21.7955C0.605114 19.1818 1.11648 16.5114 2.1392 13.7841C3.16193 11.0568 4.51136 8.4858 6.1875 6.07102C7.86364 3.65625 9.68182 1.6392 11.642 0.0198851L19.6534 4.75C18.0625 7.25 16.7557 9.86364 15.733 12.5909C14.7386 15.3182 14.2415 18.358 14.2415 21.7102V31H0.605114ZM22.125 31V21.7955C22.125 19.1818 22.6364 16.5114 23.6591 13.7841C24.6818 11.0568 26.0313 8.4858 27.7074 6.07102C29.3835 3.65625 31.2017 1.6392 33.1619 0.0198851L41.1733 4.75C39.5824 7.25 38.2756 9.86364 37.2528 12.5909C36.2585 15.3182 35.7614 18.358 35.7614 21.7102V31H22.125Z" fill="#00CC61"/>
</svg>
